PathFileType	4	(X/Y/Z)	C:/Users/beibeiliu/ov580/test_trc/User3\sequence.28_training_dense_right.trc
DataRate	CameraRate	NumFrames	NumMarkers	Units	OrigDataRate	OrigDataStartFrame	OrigNumFrames
120	120	20	19	mm	120	158	252
Frame#	Time	ThumbCMC			ThumbMCP			ThumbIP			ThumbTip			IndexMCP			IndexPIP			IndexTip			MiddleMCP			MiddlePIP			MiddleTip			RingMCP			RingPIP			RingTip			PinkyMCP			PinkyPIP			PinkyTip			BackHand1			BackHand2			BackHand3	
		X0	Y0	Z0	X1	Y1	Z1	X2	Y2	Z2	X3	Y3	Z3	X4	Y4	Z4	X5	Y5	Z5	X6	Y6	Z6	X7	Y7	Z7	X8	Y8	Z8	X9	Y9	Z9	X10	Y10	Z10	X11	Y11	Z11	X12	Y12	Z12	X13	Y13	Z13	X14	Y14	Z14	X15	Y15	Z15	X16	Y16	Z16	X17	Y17	Z17	X18	Y18	Z18	
157	1.30833	125.219	22.3653	44.2735	107.65	15.5419	13.5941	96.1261	7.60523	-13.2666	94.7101	-2.94905	-33.2726	145.265	29.4314	-32.4692	138.448	22.0022	-60.1547	136.035	9.63874	-83.6574	156.832	17.6372	-44.2478	148.457	1.8127	-66.0292	136.337	-18.172	-87.8128	180.311	11.7982	-34.8835	176.049	10.9728	-57.6942	175.795	4.74956	-83.8449	198.441	-0.0928099	-15.9804	202.738	0.785247	-35.4275	214.494	1.82148	-52.8932	188.003	23.1822	20.5431	190.265	23.4667	48.6113	158.4	39.6946	33.5123	
158	1.31667	125.587	22.1313	38.2378	105.974	15.1495	17.0532	97.0066	6.38899	-12.3741	91.5562	-3.11183	-35.0568	143.422	26.639	-36.6017	133.319	17.9108	-57.9385	130.226	1.34613	-80.4742	159.603	16.5604	-41.6987	149.324	3.01116	-64.2134	138.239	-17.4423	-86.9126	179.881	13.7357	-34.6763	177.037	10.9921	-57.242	174.024	7.48318	-86.9669	199.818	-0.713307	-16.1778	203.994	-0.51341	-38.0842	217.343	-2.98895	-53.6574	187.994	23.6455	14.9803	187.979	22.1431	45.5197	157.184	39.3273	31.8177	
159	1.325	124.984	22.2181	42.3811	110.292	13.6068	15.1138	98.0838	5.97959	-9.00363	93.6025	-4.51081	-35.2049	138.934	25.4356	-37.0377	131.2	13.7451	-56.1511	120.259	-3.92271	-77.2936	159.175	18.8082	-40.3491	149.15	1.57185	-68.4585	138.013	-14.374	-86.6401	178.343	14.5052	-33.1564	178.703	11.6969	-60.1621	178.148	5.54068	-84.3697	196.051	-0.399178	-15.7313	206.105	-4.11984	-37.7593	211.957	-4.94447	-58.5715	189.354	21.7706	19.3547	192.545	19.783	45.0768	162.772	37.9436	30.1121	
160	1.33333	128.689	19.6432	38.6163	104.927	12.2039	17.3977	92.5716	4.24571	-9.08875	91.1357	-7.29348	-33.3512	136.448	25.3912	-35.2934	127.608	10.7427	-55.2219	116.204	-10.7987	-74.6847	156.867	21.4117	-43.7506	146.733	8.88964	-69.0543	138.049	-9.56277	-88.6151	179.764	16.3804	-36.423	178.118	13.3543	-60.2576	176.347	3.66992	-87.3766	198.206	-2.07872	-18.6824	201.051	-5.17839	-37.5707	208.46	-12.1405	-58.6009	187.644	23.1719	20.5009	193.034	20.3902	44.5792	158.586	38.2068	33.4739	
161	1.34167	126.903	19.2244	42.8151	105.907	9.85191	16.3425	94.3534	1.17792	-12.0519	92.4991	-10.3234	-28.8263	137.139	27.9311	-33.8167	127.157	11.8996	-56.4403	112.874	-10.9846	-71.8065	158.943	27.1651	-42.5398	155.45	16.3939	-67.2241	138.062	-0.289797	-91.8691	181.664	16.1609	-33.3958	181.078	13.3245	-60.9521	176.866	3.03648	-83.7641	195.872	-2.63858	-20.2626	201.599	-9.87212	-40.0245	202.648	-18.8209	-62.3834	185.865	24.168	17.4576	191.703	21.2779	50.0462	159.869	39.0053	35.3473	
162	1.35	127.905	20.3357	40.472	105.251	10.1832	17.3399	95.3363	0.403657	-8.0154	95.0975	-13.19	-28.0888	140.056	30.8805	-31.9885	128.809	18.4298	-58.0386	111.769	-0.116157	-70.1311	164.543	31.8678	-40.7513	156.854	27.7508	-69.085	140.574	5.35443	-95.5941	180.864	18.7258	-33.6994	180.669	16.2815	-60.501	171.2	-1.03466	-86.1691	197.461	-4.72332	-18.156	196.15	-10.3394	-43.4724	189.657	-24.0991	-65.168	190.117	20.6351	15.6334	194.925	19.5432	47.3183	159.039	38.0428	31.5279	
163	1.35833	125.935	20.0293	43.7578	107.134	8.86011	15.3698	97.4353	-2.83936	-10.2224	97.2248	-16.5823	-29.2897	137.839	36.1842	-35.9713	129.164	25.2452	-59.9393	114.313	0.220069	-73.8103	164.974	37.1723	-36.4244	162.989	32.4471	-68.6114	144.374	14.3331	-91.8824	183.322	19.5048	-32.9361	182.964	14.5013	-61.79	172.181	-2.01738	-82.5985	193.766	-3.45136	-21.5239	190.752	-10.1567	-45.1406	180.206	-26.3024	-66.1736	188.149	22.6718	17.9966	194.168	20.2781	45.1771	160.856	36.3666	35.9603	
164	1.36667	128.859	18.6324	41.604	107.055	7.00129	16.6273	96.9165	-4.51501	-11.7514	100.5	-19.108	-27.0256	145.493	37.4867	-33.2102	130.554	29.7843	-63.4255	117.374	8.85092	-73.7183	167.089	38.331	-37.535	162.716	36.0025	-68.7415	147.354	11.9669	-93.1784	182.855	19.8307	-33.3306	181.103	13.7459	-61.9467	166.082	-6.79213	-81.6388	193.321	-3.75738	-21.0519	191.386	-14.6413	-45.4515	172.052	-31.3895	-63.0274	190.787	20.991	17.2521	195.078	17.4784	48.7477	161.756	35.7859	35.5652	
165	1.375	130.114	19.4635	42.4113	107.387	6.23737	15.6251	96.0925	-6.14364	-14.0826	105.651	-22.6093	-30.1658	145.973	39.1775	-31.6084	136.974	32.1406	-65.0585	120.916	11.4803	-74.4812	173.683	33.9401	-34.1782	168.576	33.3543	-70.1125	151.585	9.33589	-90.5822	185.425	16.6926	-32.7493	179.139	14.3701	-60.5137	163.65	-12.3822	-76.4483	188.179	-3.66304	-24.8832	184.239	-13.2715	-45.4179	165.633	-35.7178	-57.5169	189.112	20.0167	19.6994	195.162	15.4375	44.8008	163.032	35.6475	33.0255	
166	1.38333	129.671	19.3577	37.1379	109.5	5.9265	13.2361	97.4764	-6.62707	-9.55012	107.173	-22.5129	-27.6158	151.946	37.2619	-32.0102	142.83	31.8395	-64.7192	123.593	11.0767	-73.4678	172.859	37.6328	-35.6549	168.17	36.0313	-68.8554	146.834	7.03005	-85.9248	183.859	16.4686	-31.871	179.742	7.52307	-62.4893	159.347	-14.9863	-70.7366	186.797	-5.41001	-20.0028	180.922	-17.2001	-46.041	158.676	-32.7826	-49.6524	187.163	17.9576	14.9703	193.717	14.4431	42.8661	164.164	36.8154	31.9391	
167	1.39167	127.217	20.7086	39.6156	109.201	7.1139	14.2829	100.039	-6.98429	-16.6938	110.363	-24.3214	-28.3877	149.955	42.3006	-31.9624	144.557	37.7797	-62.7088	124.94	9.19574	-70.9312	172.259	37.861	-34.1239	170.548	35.3596	-66.5962	147.762	3.00221	-80.2363	183.126	15.4793	-32.2978	174.521	7.16992	-63.6779	155.266	-18.1947	-63.6627	187.118	-7.46818	-23.0068	174.874	-15.848	-45.1647	154.024	-36.6294	-43.1259	188.077	15.8834	14.1961	195.325	13.9233	44.4169	166.472	36.2495	30.7574	
168	1.4	126.545	20.6746	41.1451	111.585	5.95664	12.3118	104.328	-7.256	-12.6206	114.692	-23.756	-28.8795	150.622	40.9293	-29.121	146.834	34.1857	-63.9759	126.4	11.8534	-68.3458	172.513	35.6986	-33.3056	169.688	33.6893	-67.1734	147.216	1.69185	-72.746	183.822	13.4879	-34.0363	172.392	1.23667	-63.8939	147.843	-19.5692	-55.3002	186.191	-8.47456	-28.1411	168.711	-17.9807	-45.0458	150.047	-38.869	-39.372	189.802	15.7468	15.5372	193.292	15.0855	41.1693	166.606	33.9197	32.8286	
169	1.40833	128.515	20.7642	39.5723	108.748	7.03817	11.2905	103.556	-7.22443	-13.7212	114.838	-27.2786	-33.5549	155.76	40.0756	-34.1391	147.65	37.0497	-62.6247	125.849	14.1506	-66.2615	172.271	35.539	-35.3583	164.681	28.8592	-70.5359	141.54	-2.31278	-65.3864	180.351	13.482	-35.0847	168.379	-0.476318	-62.72	145.302	-20.5798	-48.0936	184.385	-8.77488	-29.0874	170.564	-20.7412	-44.9316	145.59	-37.9693	-30.1544	190.85	16.0393	12.553	190.727	14.4095	45.3654	165.35	33.9604	32.2249	
170	1.41667	129.931	20.3426	34.932	107.783	6.61612	10.1226	103.409	-8.31364	-19.5479	118.575	-25.2803	-29.3697	154.412	40.1862	-30.8085	149.331	35.968	-62.5918	123.897	8.5056	-61.0309	174.1	32.2484	-38.3405	160.967	24.1774	-70.3702	140.191	-5.6087	-56.1492	177.798	13.666	-36.2332	168.828	-0.188966	-61.0489	145.765	-23.1844	-43.7104	182.757	-8.97356	-27.1588	163.888	-23.5066	-43.2779	146.917	-40.9387	-22.8136	189.204	14.2346	11.6582	192.191	14.6348	42.883	166.718	33.1423	32.0703	
171	1.425	127.159	21.9197	34.6543	111.65	7.55406	10.5936	108.301	-7.55863	-18.881	120.976	-24.8083	-31.1598	154.806	41.8131	-33.1104	147.175	33.6382	-64.3208	123.576	9.61511	-58.0613	172.705	33.1924	-42.6758	161.197	19.3465	-69.7618	138.645	-7.25763	-51.0664	180.329	10.5788	-36.0198	163.562	-2.97763	-60.4512	144.899	-23.6622	-38.6756	182.313	-8.924	-29.7056	166.016	-23.695	-43.4822	145.639	-38.5294	-19.5337	187.968	15.884	13.8055	192.936	12.6853	40.769	164.699	37.3421	32.1064	
172	1.43333	130.158	20.6982	34.7184	112.074	8.04188	8.99088	105.252	-5.89829	-21.1055	124.25	-23.2373	-34.4037	153.242	43.4498	-31.4755	141.986	34.9848	-63.4158	120.901	9.32349	-52.8886	169.056	34.7491	-42.0425	153.679	20.3185	-68.983	138.487	-5.84403	-47.2251	178.295	13.0774	-38.7805	166.489	-2.67409	-59.8881	143.726	-18.6924	-38.4515	185.834	-11.1059	-26.388	164.779	-25.9117	-42.7699	147.166	-33.8729	-18.4072	189.129	15.7648	12.7833	192.126	13.1242	41.3893	168.676	34.6061	32.1777	
173	1.44167	133.064	21.0761	36.6404	115.079	10.0924	9.21466	107.221	-1.54368	-21.4589	124.632	-20.7515	-37.5489	154.112	45.364	-35.1867	143.612	33.8345	-62.663	124.245	8.73553	-48.3817	171.14	32.4544	-43.6062	152.752	19.382	-68.3713	136.381	-5.20871	-40.6101	178.301	13.1594	-37.7448	161.32	-1.90677	-58.3472	144.243	-18.0306	-32.0997	185.699	-9.20981	-27.1444	165.079	-19.8545	-43.2787	146.566	-32.3747	-19.4427	189.489	15.4485	15.283	195.807	12.767	43.7728	166.321	37.9959	32.1371	
174	1.45	133.089	22.5085	38.3972	116.655	12.4839	5.90074	110.347	1.53687	-18.6405	123.861	-16.8838	-39.393	155.251	45.8376	-35.3742	140.613	34.3886	-60.638	122.988	10.47	-40.6373	171.196	31.6529	-42.6018	153.54	18.7368	-66.0905	133.054	-2.928	-36.7752	178.849	13.7571	-38.3655	158.376	-6.16346	-55.9454	145.996	-18.6906	-27.813	184.673	-5.54965	-28.7311	165.496	-18.668	-42.8878	149.968	-27.8529	-16.4263	193.26	18.5252	14.2407	197.908	9.86301	43.7202	169.538	35.8804	34.1987	
175	1.45833	134.469	22.8296	36.9954	117.663	14.1978	5.73437	111.712	4.82707	-22.8188	126.765	-11.5342	-36.1692	155.506	44.768	-33.6608	138.949	32.2279	-59.2335	121.594	13.7548	-33.8314	168.165	33.7662	-42.5668	146.725	14.6151	-63.6328	138.343	-4.63508	-33.8437	178.233	14.1227	-40.8221	157.86	-4.08423	-54.3429	146.903	-15.3614	-28.3715	185.534	-3.00208	-32.4235	164.069	-15.3191	-41.8761	153.046	-29.5801	-17.6163	196.718	16.8249	16.1683	195.586	10.9858	44.7331	172.953	37.2809	32.9757	
176	1.46667	136.471	22.7367	37.9846	119.555	16.7245	6.74848	113.33	7.93902	-24.1699	131.065	-8.16174	-36.9882	155.935	43.4687	-36.0614	134.282	31.0079	-56.0732	121.723	14.7186	-30.6438	168.005	31.8741	-45.7571	145.989	12.911	-59.8753	140.261	-4.0486	-25.6819	175.681	17.2416	-41.0836	158.273	-1.17156	-53.594	148.814	-14.5319	-20.3662	187.027	-0.705474	-30.2976	169.43	-17.5971	-42.543	158.296	-28.3516	-16.8107	195.976	18.513	11.8918	198.64	11.8043	45.426	171.773	36.0368	33.6525	
